<svg data-v-423bf9ae="" xmlns="http://www.w3.org/2000/svg" viewBox="0 0 556.4029245752375 181" class="iconAboveSlogan"><!----><!----><!----><g data-v-423bf9ae="" id="b48ed7d7-d188-4d2b-9aa1-1ccf98903c8a" fill="white" transform="matrix(6.166495665241285,0,0,6.166495665241285,-1.9116155374603068,86.96711519631562)"><path d="M9.27 11.82L9.27 12.10L9.27 12.10Q9.03 12.17 8.71 12.17L8.71 12.17L8.71 12.17Q8.47 12.17 8.15 12.11L8.15 12.11L8.15 12.11Q7.84 12.05 7.51 11.87L7.51 11.87L7.51 11.87Q7.18 11.68 6.87 11.31L6.87 11.31L6.87 11.31Q6.55 10.95 6.33 10.35L6.33 10.35L5.98 9.44L2.06 9.44L0.94 12.10L0.31 12.10L4.23 2.86L4.65 2.86L7.73 10.35L7.73 10.35Q7.90 10.74 8.04 11.01L8.04 11.01L8.04 11.01Q8.19 11.28 8.37 11.45L8.37 11.45L8.37 11.45Q8.55 11.62 8.76 11.70L8.76 11.70L8.76 11.70Q8.97 11.79 9.27 11.82L9.27 11.82ZM4.02 4.82L2.27 8.88L5.70 8.88L4.02 4.82ZM12.96 7.69L11.63 7.69L11.63 11.41L11.63 11.41Q11.96 11.51 12.30 11.56L12.30 11.56L12.30 11.56Q12.64 11.61 12.96 11.61L12.96 11.61L12.96 11.61Q14.24 11.61 14.93 11.10L14.93 11.10L14.93 11.10Q15.62 10.60 15.62 9.65L15.62 9.65L15.62 9.65Q15.62 8.69 14.95 8.19L14.95 8.19L14.95 8.19Q14.28 7.69 12.96 7.69L12.96 7.69ZM11.63 7.13L12.96 7.13L12.96 7.13Q13.38 7.13 13.78 7.01L13.78 7.01L13.78 7.01Q14.18 6.89 14.50 6.65L14.50 6.65L14.50 6.65Q14.81 6.41 15.01 6.06L15.01 6.06L15.01 6.06Q15.20 5.71 15.20 5.24L15.20 5.24L15.20 5.24Q15.20 4.73 14.97 4.38L14.97 4.38L14.97 4.38Q14.73 4.02 14.36 3.79L14.36 3.79L14.36 3.79Q14 3.56 13.55 3.45L13.55 3.45L13.55 3.45Q13.10 3.35 12.68 3.35L12.68 3.35L12.68 3.35Q12.42 3.35 12.13 3.39L12.13 3.39L12.13 3.39Q11.84 3.43 11.63 3.49L11.63 3.49L11.63 7.13ZM9.11 2.86L12.75 2.86L12.75 2.86Q13.30 2.86 13.96 2.93L13.96 2.93L13.96 2.93Q14.63 3.01 15.20 3.27L15.20 3.27L15.20 3.27Q15.76 3.53 16.15 4.01L16.15 4.01L16.15 4.01Q16.53 4.49 16.53 5.31L16.53 5.31L16.53 5.31Q16.53 5.94 16.10 6.47L16.10 6.47L16.10 6.47Q15.67 7.01 14.71 7.34L14.71 7.34L14.71 7.34Q15.40 7.45 15.84 7.65L15.84 7.65L15.84 7.65Q16.28 7.85 16.55 8.14L16.55 8.14L16.55 8.14Q16.81 8.43 16.92 8.79L16.92 8.79L16.92 8.79Q17.02 9.16 17.02 9.58L17.02 9.58L17.02 9.58Q17.02 10.36 16.67 10.86L16.67 10.86L16.67 10.86Q16.31 11.35 15.76 11.63L15.76 11.63L15.76 11.63Q15.20 11.90 14.52 12.00L14.52 12.00L14.52 12.00Q13.83 12.10 13.17 12.10L13.17 12.10L10.37 12.10L10.37 4.54L10.37 4.54Q10.37 3.91 10.20 3.52L10.20 3.52L10.20 3.52Q10.02 3.14 9.39 3.14L9.39 3.14L9.11 3.14L9.11 2.86ZM26.78 11.82L26.78 12.10L26.78 12.10Q26.54 12.17 26.22 12.17L26.22 12.17L26.22 12.17Q25.98 12.17 25.67 12.11L25.67 12.11L25.67 12.11Q25.35 12.05 25.02 11.87L25.02 11.87L25.02 11.87Q24.70 11.68 24.38 11.31L24.38 11.31L24.38 11.31Q24.07 10.95 23.84 10.35L23.84 10.35L23.49 9.44L19.57 9.44L18.45 12.10L17.82 12.10L21.74 2.86L22.16 2.86L25.24 10.35L25.24 10.35Q25.41 10.74 25.56 11.01L25.56 11.01L25.56 11.01Q25.70 11.28 25.89 11.45L25.89 11.45L25.89 11.45Q26.07 11.62 26.28 11.70L26.28 11.70L26.28 11.70Q26.49 11.79 26.78 11.82L26.78 11.82ZM21.53 4.82L19.78 8.88L23.21 8.88L21.53 4.82ZM28.46 4.40L30.49 7.55L33.42 2.86L34.05 2.86L30.77 8.18L30.77 12.10L29.51 12.10L29.51 8.27L27.13 4.68L27.13 4.68Q26.92 4.37 26.72 4.10L26.72 4.10L26.72 4.10Q26.52 3.82 26.28 3.62L26.28 3.62L26.28 3.62Q26.04 3.42 25.75 3.29L25.75 3.29L25.75 3.29Q25.47 3.16 25.10 3.14L25.10 3.14L25.10 2.86L26.36 2.86L26.36 2.86Q26.75 2.86 27.06 2.99L27.06 2.99L27.06 2.99Q27.37 3.12 27.62 3.34L27.62 3.34L27.62 3.34Q27.87 3.56 28.08 3.83L28.08 3.83L28.08 3.83Q28.28 4.10 28.46 4.40L28.46 4.40ZM44.60 9.74L44.60 9.74L44.60 9.74Q44.60 10.33 44.40 10.81L44.40 10.81L44.40 10.81Q44.20 11.28 43.82 11.63L43.82 11.63L43.82 11.63Q43.44 11.97 42.90 12.15L42.90 12.15L42.90 12.15Q42.36 12.33 41.69 12.33L41.69 12.33L41.69 12.33Q41.12 12.33 40.55 12.21L40.55 12.21L40.55 12.21Q39.98 12.10 39.53 11.87L39.53 11.87L39.53 11.87Q39.07 11.65 38.79 11.33L38.79 11.33L38.79 11.33Q38.50 11.02 38.50 10.63L38.50 10.63L38.50 9.13L38.75 9.13L38.75 9.13Q38.99 10.54 39.68 11.16L39.68 11.16L39.68 11.16Q40.38 11.77 41.57 11.77L41.57 11.77L41.57 11.77Q41.93 11.77 42.26 11.68L42.26 11.68L42.26 11.68Q42.59 11.59 42.84 11.41L42.84 11.41L42.84 11.41Q43.09 11.23 43.25 10.96L43.25 10.96L43.25 10.96Q43.40 10.70 43.40 10.35L43.40 10.35L43.40 10.35Q43.40 9.73 43.02 9.30L43.02 9.30L43.02 9.30Q42.63 8.86 41.86 8.41L41.86 8.41L40.14 7.39L40.14 7.39Q39.24 6.86 38.87 6.31L38.87 6.31L38.87 6.31Q38.50 5.77 38.50 4.98L38.50 4.98L38.50 4.98Q38.50 4.44 38.70 4.00L38.70 4.00L38.70 4.00Q38.89 3.57 39.25 3.26L39.25 3.26L39.25 3.26Q39.61 2.94 40.10 2.77L40.10 2.77L40.10 2.77Q40.60 2.60 41.22 2.60L41.22 2.60L41.22 2.60Q41.73 2.60 42.27 2.72L42.27 2.72L42.27 2.72Q42.81 2.83 43.25 3.04L43.25 3.04L43.25 3.04Q43.68 3.26 43.96 3.58L43.96 3.58L43.96 3.58Q44.24 3.89 44.24 4.28L44.24 4.28L44.24 5.78L43.99 5.78L43.99 5.78Q43.75 4.37 43.08 3.77L43.08 3.77L43.08 3.77Q42.41 3.16 41.22 3.16L41.22 3.16L41.22 3.16Q40.91 3.16 40.61 3.26L40.61 3.26L40.61 3.26Q40.32 3.36 40.10 3.54L40.10 3.54L40.10 3.54Q39.87 3.72 39.73 3.99L39.73 3.99L39.73 3.99Q39.59 4.26 39.59 4.58L39.59 4.58L39.59 4.58Q39.59 4.89 39.69 5.12L39.69 5.12L39.69 5.12Q39.79 5.36 39.98 5.57L39.98 5.57L39.98 5.57Q40.18 5.78 40.47 5.99L40.47 5.99L40.47 5.99Q40.77 6.19 41.15 6.41L41.15 6.41L42.87 7.43L42.87 7.43Q43.32 7.70 43.64 7.95L43.64 7.95L43.64 7.95Q43.97 8.19 44.18 8.46L44.18 8.46L44.18 8.46Q44.39 8.74 44.50 9.04L44.50 9.04L44.50 9.04Q44.60 9.35 44.60 9.74ZM54.47 11.82L54.47 12.10L54.47 12.10Q54.24 12.17 53.91 12.17L53.91 12.17L53.91 12.17Q53.68 12.17 53.36 12.11L53.36 12.11L53.36 12.11Q53.05 12.05 52.72 11.87L52.72 11.87L52.72 11.87Q52.39 11.68 52.07 11.31L52.07 11.31L52.07 11.31Q51.76 10.95 51.53 10.35L51.53 10.35L51.18 9.44L47.26 9.44L46.14 12.10L45.51 12.10L49.43 2.86L49.85 2.86L52.93 10.35L52.93 10.35Q53.10 10.74 53.25 11.01L53.25 11.01L53.25 11.01Q53.40 11.28 53.58 11.45L53.58 11.45L53.58 11.45Q53.76 11.62 53.97 11.70L53.97 11.70L53.97 11.70Q54.18 11.79 54.47 11.82L54.47 11.82ZM49.22 4.82L47.47 8.88L50.90 8.88L49.22 4.82ZM55.64 12.10L55.64 4.54L55.64 4.54Q55.64 3.91 55.37 3.52L55.37 3.52L55.37 3.52Q55.10 3.14 54.38 3.14L54.38 3.14L54.24 3.14L54.24 2.86L55.15 2.86L55.15 2.86Q55.83 2.86 56.27 3.08L56.27 3.08L56.27 3.08Q56.71 3.30 57.04 3.70L57.04 3.70L61.94 9.79L61.94 2.86L62.50 2.86L62.50 12.24L62.22 12.24L56.20 4.75L56.20 12.10L55.64 12.10ZM63.91 2.86L65.17 2.86L65.17 2.86Q65.53 2.86 65.78 2.92L65.78 2.92L65.78 2.92Q66.02 2.98 66.17 3.17L66.17 3.17L66.17 3.17Q66.32 3.36 66.37 3.69L66.37 3.69L66.37 3.69Q66.43 4.02 66.43 4.54L66.43 4.54L66.43 7.27L69.37 4.33L69.37 4.33Q69.64 4.06 69.88 3.80L69.88 3.80L69.88 3.80Q70.13 3.54 70.40 3.33L70.40 3.33L70.40 3.33Q70.67 3.12 71.00 2.99L71.00 2.99L71.00 2.99Q71.33 2.86 71.75 2.86L71.75 2.86L72.45 2.86L72.45 3.21L72.45 3.21Q71.88 3.21 71.44 3.41L71.44 3.41L71.44 3.41Q70.99 3.61 70.42 4.19L70.42 4.19L67.69 6.92L70.91 10.28L70.91 10.28Q71.48 10.88 72.12 11.32L72.12 11.32L72.12 11.32Q72.76 11.76 73.29 11.83L73.29 11.83L73.29 12.10L73.29 12.10Q73.14 12.15 72.92 12.19L72.92 12.19L72.92 12.19Q72.70 12.24 72.38 12.24L72.38 12.24L72.38 12.24Q72.09 12.24 71.77 12.17L71.77 12.17L71.77 12.17Q71.46 12.11 71.09 11.92L71.09 11.92L71.09 11.92Q70.71 11.73 70.29 11.41L70.29 11.41L70.29 11.41Q69.87 11.09 69.37 10.56L69.37 10.56L66.43 7.48L66.43 12.10L65.17 12.10L65.17 4.54L65.17 4.54Q65.17 3.91 65.00 3.52L65.00 3.52L65.00 3.52Q64.82 3.14 64.19 3.14L64.19 3.14L63.91 3.14L63.91 2.86ZM82.43 11.82L82.43 12.10L82.43 12.10Q82.19 12.17 81.87 12.17L81.87 12.17L81.87 12.17Q81.63 12.17 81.32 12.11L81.32 12.11L81.32 12.11Q81.00 12.05 80.67 11.87L80.67 11.87L80.67 11.87Q80.35 11.68 80.03 11.31L80.03 11.31L80.03 11.31Q79.72 10.95 79.49 10.35L79.49 10.35L79.14 9.44L75.22 9.44L74.10 12.10L73.47 12.10L77.39 2.86L77.81 2.86L80.89 10.35L80.89 10.35Q81.06 10.74 81.21 11.01L81.21 11.01L81.21 11.01Q81.35 11.28 81.54 11.45L81.54 11.45L81.54 11.45Q81.72 11.62 81.93 11.70L81.93 11.70L81.93 11.70Q82.14 11.79 82.43 11.82L82.43 11.82ZM77.18 4.82L75.43 8.88L78.86 8.88L77.18 4.82ZM85.85 7.34L85.85 7.34L85.85 7.34Q86.14 7.34 86.51 7.22L86.51 7.22L86.51 7.22Q86.88 7.11 87.22 6.88L87.22 6.88L87.22 6.88Q87.56 6.65 87.79 6.28L87.79 6.28L87.79 6.28Q88.02 5.91 88.02 5.38L88.02 5.38L88.02 5.38Q88.02 4.83 87.79 4.44L87.79 4.44L87.79 4.44Q87.56 4.05 87.22 3.81L87.22 3.81L87.22 3.81Q86.88 3.57 86.51 3.46L86.51 3.46L86.51 3.46Q86.14 3.35 85.85 3.35L85.85 3.35L85.85 3.35Q85.58 3.35 85.30 3.39L85.30 3.39L85.30 3.39Q85.01 3.43 84.80 3.49L84.80 3.49L84.80 7.20L84.80 7.20Q85.01 7.25 85.30 7.29L85.30 7.29L85.30 7.29Q85.58 7.34 85.85 7.34ZM87.18 10.21L85.78 7.83L84.80 7.83L84.80 12.10L83.54 12.10L83.54 4.54L83.54 4.54Q83.54 3.91 83.36 3.52L83.36 3.52L83.36 3.52Q83.19 3.14 82.56 3.14L82.56 3.14L82.28 3.14L82.28 2.86L85.92 2.86L85.92 2.86Q86.37 2.86 86.97 2.93L86.97 2.93L86.97 2.93Q87.57 3.01 88.12 3.28L88.12 3.28L88.12 3.28Q88.66 3.54 89.04 4.04L89.04 4.04L89.04 4.04Q89.42 4.54 89.42 5.38L89.42 5.38L89.42 5.38Q89.42 5.98 89.21 6.40L89.21 6.40L89.21 6.40Q89.00 6.82 88.67 7.09L88.67 7.09L88.67 7.09Q88.34 7.36 87.94 7.52L87.94 7.52L87.94 7.52Q87.54 7.67 87.18 7.76L87.18 7.76L88.65 10.21L88.65 10.21Q88.91 10.65 89.14 10.95L89.14 10.95L89.14 10.95Q89.38 11.24 89.60 11.43L89.60 11.43L89.60 11.43Q89.82 11.62 90.05 11.70L90.05 11.70L90.05 11.70Q90.27 11.79 90.54 11.82L90.54 11.82L90.54 12.10L90.54 12.10Q90.43 12.15 90.20 12.19L90.20 12.19L90.20 12.19Q89.96 12.24 89.70 12.24L89.70 12.24L89.70 12.24Q89.33 12.24 89.02 12.14L89.02 12.14L89.02 12.14Q88.70 12.04 88.41 11.80L88.41 11.80L88.41 11.80Q88.12 11.56 87.81 11.17L87.81 11.17L87.81 11.17Q87.51 10.78 87.18 10.21L87.18 10.21Z"></path></g><!----><g data-v-423bf9ae="" id="4739a94e-8459-4434-8f23-82719401b3cc" transform="matrix(1.188118811881188,0,0,1.188118811881188,222.6987629503307,-13.251029628338195)" stroke="none" fill="white"><path d="M82.325 11.966h-69.75a6.508 6.508 0 0 0-6.5 6.5v62.75c0 3.584 2.916 6.5 6.5 6.5h69.75c3.584 0 6.5-2.916 6.5-6.5v-62.75c0-3.584-2.916-6.5-6.5-6.5zM27.7 82.716H12.575c-.827 0-1.5-.673-1.5-1.5v-44.75H27.7v46.25zm56.125-1.5c0 .827-.673 1.5-1.5 1.5H32.7v-46.25h51.125v44.75zm0-49.75h-72.75v-13c0-.827.673-1.5 1.5-1.5h69.75c.827 0 1.5.673 1.5 1.5v13zm-6.874-10.833c-1.93 0-3.5 1.57-3.5 3.5s1.57 3.5 3.5 3.5 3.5-1.57 3.5-3.5-1.57-3.5-3.5-3.5zm-10 0c-1.93 0-3.5 1.57-3.5 3.5s1.57 3.5 3.5 3.5 3.5-1.57 3.5-3.5-1.57-3.5-3.5-3.5zm-10 0c-1.93 0-3.5 1.57-3.5 3.5s1.57 3.5 3.5 3.5 3.5-1.57 3.5-3.5-1.57-3.5-3.5-3.5z"></path></g><!----><g data-v-423bf9ae="" id="5ce353eb-797c-402b-be63-dc4119fe39f9" fill="white" transform="matrix(0.5479499230042311,0,0,0.5479499230042311,70.50260031208111,204.1002425091529)"><path d="M14.50 3.92L13.96 3.92L13.92 3.92L12.45 3.92L12.45 4.19C12.45 4.34 12.53 4.42 12.71 4.44L12.84 4.44C12.89 4.44 12.99 4.45 13.13 4.45C13.27 4.45 13.41 4.47 13.58 4.47L11.20 12.24C11.17 12.33 11.14 12.43 11.13 12.54C11.12 12.66 11.09 12.75 11.06 12.87C11.03 12.75 11.02 12.63 10.99 12.53L10.91 12.24L8.11 4.10C8.08 4.05 8.05 3.99 8.01 3.96C7.97 3.93 7.91 3.92 7.84 3.92L7.64 3.92C7.57 3.92 7.52 3.93 7.48 3.98C7.43 4.02 7.39 4.05 7.38 4.10L4.58 12.25C4.55 12.35 4.52 12.43 4.49 12.54C4.47 12.64 4.45 12.75 4.42 12.88C4.41 12.78 4.38 12.67 4.35 12.54C4.34 12.43 4.31 12.33 4.28 12.24L1.90 4.47C2.07 4.47 2.21 4.45 2.34 4.45C2.46 4.45 2.55 4.44 2.60 4.44L2.72 4.44C2.90 4.42 3.00 4.34 3.00 4.19L3.00 3.92L1.53 3.92L0.94 3.92L0.34 3.92L0.34 4.19C0.34 4.34 0.43 4.42 0.62 4.44L0.71 4.44C0.76 4.44 0.80 4.45 0.87 4.45C0.94 4.45 1.02 4.47 1.11 4.47L4.06 13.82L4.69 13.82L7.63 5.22C7.67 5.11 7.70 5.00 7.73 4.87C7.76 5.00 7.78 5.11 7.83 5.22L10.75 13.82L11.40 13.82L14.34 4.47C14.42 4.47 14.49 4.45 14.56 4.45C14.63 4.45 14.69 4.44 14.73 4.44L14.83 4.44C15.01 4.42 15.09 4.34 15.09 4.19L15.09 3.92ZM30.90 13.22L30.44 13.17L26.66 3.91L25.94 3.91L22.15 13.17L21.70 13.22C21.52 13.23 21.43 13.33 21.43 13.50L21.43 13.82L21.88 13.82L22.18 13.82L22.43 13.82L22.53 13.82L23.84 13.82L23.84 13.50C23.84 13.31 23.73 13.23 23.52 13.22C23.51 13.22 23.48 13.20 23.44 13.20C23.39 13.20 23.34 13.19 23.24 13.19C23.14 13.19 23.02 13.19 22.88 13.17L23.86 10.75L23.93 10.57L28.66 10.57L28.73 10.75L29.71 13.17C29.57 13.19 29.46 13.19 29.36 13.19C29.26 13.19 29.19 13.20 29.15 13.20C29.11 13.20 29.08 13.22 29.06 13.22C28.85 13.23 28.74 13.31 28.74 13.50L28.74 13.82L30.06 13.82L30.16 13.82L30.42 13.82L30.70 13.82L31.16 13.82L31.16 13.50C31.16 13.33 31.08 13.23 30.90 13.22ZM26.10 5.22C26.12 5.14 26.17 5.04 26.19 4.94C26.22 4.84 26.26 4.75 26.29 4.63C26.32 4.75 26.36 4.84 26.39 4.94C26.42 5.04 26.46 5.12 26.49 5.21L28.45 10.04L24.15 10.04ZM45.77 11.97C45.57 11.97 45.49 12.08 45.47 12.31C45.47 12.32 45.47 12.38 45.46 12.43C45.44 12.49 45.44 12.59 45.43 12.71C45.42 12.84 45.40 13.01 45.39 13.20L41.30 13.20L41.30 4.47C41.47 4.47 41.61 4.45 41.75 4.45C41.89 4.45 42 4.44 42.07 4.44L42.20 4.44C42.38 4.42 42.48 4.34 42.48 4.19L42.48 3.92L41.30 3.92L40.59 3.92L39.40 3.92L39.40 4.19C39.40 4.34 39.49 4.42 39.68 4.44L39.82 4.44C39.89 4.44 39.98 4.45 40.12 4.45C40.26 4.45 40.42 4.47 40.59 4.47L40.59 13.26C40.42 13.26 40.26 13.27 40.12 13.27C39.98 13.27 39.89 13.29 39.82 13.29L39.68 13.29C39.49 13.30 39.40 13.38 39.40 13.54L39.40 13.82L40.59 13.82L45.86 13.82L45.99 13.82L46.12 13.82L46.12 13.55L46.12 12.99L46.12 11.97L45.84 11.97ZM63.04 13.29L62.96 13.29L62.78 13.29C62.69 13.29 62.59 13.27 62.50 13.27L58.46 9.06C58.38 8.96 58.31 8.89 58.23 8.83C58.14 8.78 58.06 8.74 57.96 8.71C58.04 8.68 58.11 8.64 58.18 8.58C58.25 8.53 58.34 8.46 58.42 8.36L62.22 4.45L62.48 4.45C62.57 4.45 62.62 4.44 62.66 4.44L62.75 4.44C62.93 4.42 63.03 4.34 63.03 4.19L63.03 3.91L62.05 3.91L61.92 3.91L60.12 3.91L60.12 4.19C60.12 4.34 60.21 4.42 60.40 4.44L60.56 4.44C60.66 4.44 60.79 4.45 60.96 4.45L61.40 4.45L57.74 8.22C57.68 8.27 57.62 8.33 57.58 8.36C57.54 8.39 57.48 8.40 57.43 8.43C57.37 8.44 57.33 8.47 57.26 8.47C57.19 8.48 57.11 8.48 57.02 8.48L56.43 8.48L56.43 4.45C56.60 4.45 56.76 4.44 56.90 4.44C57.04 4.44 57.13 4.42 57.20 4.42L57.34 4.42C57.53 4.41 57.61 4.33 57.61 4.17L57.61 3.91L56.43 3.91L55.72 3.91L54.54 3.91L54.54 4.17C54.54 4.33 54.64 4.41 54.82 4.42L54.95 4.42C55.02 4.42 55.13 4.44 55.27 4.44C55.41 4.44 55.55 4.45 55.72 4.45L55.72 13.26C55.55 13.26 55.41 13.27 55.27 13.27C55.13 13.27 55.02 13.29 54.95 13.29L54.82 13.29C54.64 13.30 54.54 13.38 54.54 13.54L54.54 13.82L55.72 13.82L56.43 13.82L57.61 13.82L57.61 13.54C57.61 13.38 57.53 13.30 57.34 13.29L57.20 13.29C57.13 13.29 57.04 13.27 56.90 13.27C56.76 13.27 56.60 13.26 56.43 13.26L56.43 9.04L57.08 9.04C57.19 9.04 57.29 9.04 57.36 9.06C57.43 9.07 57.48 9.09 57.54 9.11C57.60 9.14 57.65 9.17 57.69 9.21C57.74 9.25 57.78 9.28 57.83 9.34L61.68 13.27C61.54 13.27 61.38 13.29 61.21 13.29L60.80 13.29L60.62 13.29C60.44 13.30 60.34 13.38 60.34 13.54L60.34 13.82L62.22 13.82L62.27 13.82L62.44 13.82L63.03 13.82L63.32 13.82L63.32 13.54C63.32 13.38 63.22 13.30 63.04 13.29ZM89.49 3.92L89.29 3.92L82.00 3.92L81.79 3.92L81.69 3.92L81.69 5.96L82.04 5.96C82.24 5.96 82.32 5.85 82.33 5.63C82.33 5.53 82.36 5.17 82.39 4.52L85.29 4.52L85.29 13.26C85.12 13.26 84.98 13.27 84.84 13.27C84.70 13.27 84.59 13.29 84.52 13.29L84.39 13.29C84.21 13.30 84.11 13.38 84.11 13.54L84.11 13.82L85.29 13.82L86.00 13.82L87.19 13.82L87.19 13.54C87.19 13.38 87.09 13.30 86.91 13.29L86.77 13.29C86.70 13.29 86.60 13.27 86.46 13.27C86.32 13.27 86.17 13.26 86.00 13.26L86.00 4.52L88.89 4.52C88.93 5.24 88.94 5.60 88.94 5.63C88.96 5.85 89.05 5.96 89.25 5.96L89.59 5.96L89.59 3.92ZM104.90 13.29L104.82 13.29L104.72 13.29C104.68 13.29 104.61 13.27 104.51 13.27C104.41 13.27 104.29 13.26 104.16 13.26L104.16 9.37C104.16 8.96 104.12 8.60 104.02 8.27C103.92 7.95 103.78 7.67 103.59 7.45C103.39 7.22 103.15 7.06 102.86 6.93C102.56 6.80 102.23 6.75 101.85 6.75C101.33 6.75 100.87 6.86 100.45 7.10C100.04 7.34 99.68 7.66 99.36 8.05L99.36 3.64L98.69 3.64L97.68 3.64L97.68 3.91C97.68 4.06 97.78 4.14 97.96 4.16L98.03 4.16C98.06 4.16 98.10 4.17 98.14 4.17L98.35 4.17C98.45 4.17 98.56 4.19 98.69 4.19L98.69 13.26C98.53 13.26 98.39 13.29 98.28 13.29L98.04 13.29L97.96 13.29C97.78 13.30 97.68 13.38 97.68 13.54L97.68 13.82L98.69 13.82L99.36 13.82L100.37 13.82L100.37 13.54C100.37 13.38 100.27 13.30 100.09 13.29L100.02 13.29L99.90 13.29C99.86 13.29 99.79 13.27 99.69 13.27C99.60 13.27 99.48 13.26 99.36 13.26L99.36 8.60C99.67 8.19 100.02 7.87 100.41 7.63C100.80 7.39 101.22 7.28 101.68 7.28C102.30 7.28 102.76 7.46 103.05 7.83C103.35 8.20 103.50 8.71 103.50 9.37L103.50 13.82L104.16 13.82L105.17 13.82L105.17 13.54C105.17 13.38 105.08 13.30 104.90 13.29ZM116.41 6.73C115.92 6.73 115.47 6.83 115.08 7.00C114.69 7.17 114.37 7.41 114.10 7.71C113.83 8.02 113.62 8.39 113.48 8.81C113.34 9.23 113.26 9.69 113.26 10.19C113.26 10.78 113.34 11.31 113.50 11.77C113.65 12.24 113.86 12.61 114.14 12.94C114.42 13.26 114.76 13.50 115.15 13.66C115.54 13.83 115.98 13.90 116.45 13.90C116.72 13.90 116.98 13.89 117.24 13.83C117.49 13.78 117.74 13.71 117.96 13.62C118.19 13.54 118.40 13.44 118.58 13.31C118.76 13.19 118.92 13.06 119.03 12.92L118.85 12.70C118.82 12.66 118.76 12.63 118.71 12.63C118.66 12.63 118.58 12.66 118.48 12.74C118.38 12.82 118.24 12.91 118.06 13.01C117.89 13.10 117.67 13.17 117.42 13.26C117.17 13.34 116.86 13.38 116.51 13.38C116.12 13.38 115.77 13.31 115.44 13.17C115.12 13.03 114.86 12.84 114.63 12.57C114.41 12.31 114.24 11.97 114.11 11.58C113.99 11.19 113.93 10.71 113.93 10.19L113.93 10.07L118.96 10.07C119.03 10.07 119.07 10.05 119.10 10.01C119.13 9.97 119.15 9.90 119.15 9.80C119.15 9.31 119.08 8.88 118.94 8.50C118.80 8.12 118.62 7.78 118.37 7.53C118.13 7.28 117.84 7.08 117.50 6.94C117.17 6.80 116.80 6.73 116.41 6.73ZM116.42 7.24C116.75 7.24 117.03 7.29 117.29 7.41C117.56 7.52 117.78 7.67 117.96 7.88C118.15 8.09 118.30 8.33 118.40 8.62C118.50 8.92 118.55 9.25 118.55 9.63L113.96 9.63C114.00 9.27 114.09 8.93 114.21 8.64C114.34 8.34 114.51 8.09 114.72 7.88C114.93 7.67 115.18 7.52 115.46 7.41C115.74 7.29 116.06 7.24 116.42 7.24ZM143.99 4.68C143.40 4.17 142.52 3.92 141.36 3.92L138.95 3.92L137.76 3.92L137.76 4.19C137.76 4.34 137.86 4.42 138.04 4.44L138.18 4.44C138.25 4.44 138.35 4.45 138.49 4.45C138.63 4.45 138.78 4.47 138.95 4.47L138.95 13.26C138.78 13.26 138.63 13.27 138.49 13.27C138.35 13.27 138.25 13.29 138.18 13.29L138.04 13.29C137.86 13.30 137.76 13.38 137.76 13.54L137.76 13.82L138.95 13.82L139.66 13.82L140.84 13.82L140.84 13.54C140.84 13.38 140.74 13.30 140.56 13.29L140.43 13.29C140.36 13.29 140.25 13.27 140.11 13.27C139.97 13.27 139.83 13.26 139.66 13.26L139.66 9.83L141.36 9.83C141.90 9.83 142.39 9.74 142.83 9.60C143.26 9.45 143.63 9.25 143.93 8.99C144.24 8.72 144.48 8.41 144.63 8.05C144.80 7.69 144.87 7.29 144.87 6.86C144.87 5.92 144.58 5.18 143.99 4.68ZM143.96 7.81C143.84 8.11 143.65 8.36 143.42 8.57C143.18 8.78 142.88 8.95 142.53 9.07C142.18 9.20 141.79 9.25 141.36 9.25L139.66 9.25L139.66 4.48L141.36 4.48C142.28 4.48 142.98 4.69 143.46 5.10C143.92 5.50 144.16 6.09 144.16 6.85C144.16 7.20 144.09 7.52 143.96 7.81ZM161.53 13.22L161.07 13.17L157.29 3.91L156.58 3.91L152.78 13.17L152.33 13.22C152.15 13.23 152.07 13.33 152.07 13.50L152.07 13.82L152.52 13.82L152.81 13.82L153.06 13.82L153.16 13.82L154.48 13.82L154.48 13.50C154.48 13.31 154.36 13.23 154.15 13.22C154.14 13.22 154.11 13.20 154.07 13.20C154.03 13.20 153.97 13.19 153.87 13.19C153.78 13.19 153.65 13.19 153.51 13.17L154.49 10.75L154.56 10.57L159.29 10.57L159.36 10.75L160.34 13.17C160.20 13.19 160.09 13.19 159.99 13.19C159.89 13.19 159.82 13.20 159.78 13.20C159.74 13.20 159.71 13.22 159.70 13.22C159.49 13.23 159.38 13.31 159.38 13.50L159.38 13.82L160.69 13.82L160.79 13.82L161.06 13.82L161.34 13.82L161.80 13.82L161.80 13.50C161.80 13.33 161.71 13.23 161.53 13.22ZM156.73 5.22C156.76 5.14 156.80 5.04 156.83 4.94C156.86 4.84 156.90 4.75 156.93 4.63C156.95 4.75 157.00 4.84 157.02 4.94C157.05 5.04 157.09 5.12 157.12 5.21L159.08 10.04L154.78 10.04ZM176.46 3.92L176.26 3.92L168.97 3.92L168.76 3.92L168.66 3.92L168.66 5.96L169.01 5.96C169.20 5.96 169.29 5.85 169.30 5.63C169.30 5.53 169.33 5.17 169.36 4.52L172.26 4.52L172.26 13.26C172.09 13.26 171.95 13.27 171.81 13.27C171.67 13.27 171.56 13.29 171.49 13.29L171.36 13.29C171.18 13.30 171.08 13.38 171.08 13.54L171.08 13.82L172.26 13.82L172.97 13.82L174.16 13.82L174.16 13.54C174.16 13.38 174.06 13.30 173.88 13.29L173.74 13.29C173.67 13.29 173.57 13.27 173.43 13.27C173.29 13.27 173.14 13.26 172.97 13.26L172.97 4.52L175.85 4.52C175.90 5.24 175.91 5.60 175.91 5.63C175.92 5.85 176.02 5.96 176.22 5.96L176.55 5.96L176.55 3.92ZM194.39 4.44C194.57 4.42 194.67 4.34 194.67 4.19L194.67 3.92L193.49 3.92L192.77 3.92L191.59 3.92L191.59 4.19C191.59 4.34 191.69 4.42 191.87 4.44L192.00 4.44C192.07 4.44 192.18 4.45 192.32 4.45C192.46 4.45 192.60 4.47 192.77 4.47L192.77 8.53L186.56 8.53L186.56 4.47C186.73 4.47 186.89 4.45 187.03 4.45C187.17 4.45 187.26 4.44 187.33 4.44L187.47 4.44C187.66 4.42 187.74 4.34 187.74 4.19L187.74 3.92L186.56 3.92L185.85 3.92L184.66 3.92L184.66 4.19C184.66 4.34 184.76 4.42 184.94 4.44L185.08 4.44C185.15 4.44 185.25 4.45 185.39 4.45C185.53 4.45 185.68 4.47 185.85 4.47L185.85 13.26C185.68 13.26 185.53 13.27 185.39 13.27C185.25 13.27 185.15 13.29 185.08 13.29L184.94 13.29C184.76 13.30 184.66 13.38 184.66 13.54L184.66 13.82L185.85 13.82L186.56 13.82L187.74 13.82L187.74 13.54C187.74 13.38 187.66 13.30 187.47 13.29L187.33 13.29C187.26 13.29 187.17 13.27 187.03 13.27C186.89 13.27 186.73 13.26 186.56 13.26L186.56 9.07L192.77 9.07L192.77 13.26C192.60 13.26 192.46 13.27 192.32 13.27C192.18 13.27 192.07 13.29 192.00 13.29L191.87 13.29C191.69 13.30 191.59 13.38 191.59 13.54L191.59 13.82L192.77 13.82L193.49 13.82L194.67 13.82L194.67 13.54C194.67 13.38 194.57 13.30 194.39 13.29L194.26 13.29C194.19 13.29 194.08 13.27 193.94 13.27C193.80 13.27 193.66 13.26 193.49 13.26L193.49 4.47C193.66 4.47 193.80 4.45 193.94 4.45C194.08 4.45 194.19 4.44 194.26 4.44ZM222.68 13.22L222.22 13.17L218.44 3.91L217.73 3.91L213.93 13.17L213.49 13.22C213.30 13.23 213.22 13.33 213.22 13.50L213.22 13.82L213.67 13.82L213.96 13.82L214.21 13.82L214.31 13.82L215.63 13.82L215.63 13.50C215.63 13.31 215.52 13.23 215.31 13.22C215.29 13.22 215.26 13.20 215.22 13.20C215.18 13.20 215.12 13.19 215.03 13.19C214.93 13.19 214.80 13.19 214.66 13.17L215.64 10.75L215.71 10.57L220.44 10.57L220.51 10.75L221.49 13.17C221.35 13.19 221.24 13.19 221.14 13.19C221.05 13.19 220.98 13.20 220.93 13.20C220.89 13.20 220.86 13.22 220.85 13.22C220.64 13.23 220.53 13.31 220.53 13.50L220.53 13.82L221.84 13.82L221.94 13.82L222.21 13.82L222.49 13.82L222.95 13.82L222.95 13.50C222.95 13.33 222.87 13.23 222.68 13.22ZM217.88 5.22C217.91 5.14 217.95 5.04 217.98 4.94C218.01 4.84 218.05 4.75 218.08 4.63C218.11 4.75 218.15 4.84 218.18 4.94C218.20 5.04 218.25 5.12 218.27 5.21L220.23 10.04L215.94 10.04ZM237.55 11.97C237.36 11.97 237.27 12.08 237.26 12.31C237.26 12.32 237.26 12.38 237.24 12.43C237.23 12.49 237.23 12.59 237.22 12.71C237.20 12.84 237.19 13.01 237.17 13.20L233.09 13.20L233.09 4.47C233.25 4.47 233.39 4.45 233.53 4.45C233.67 4.45 233.79 4.44 233.86 4.44L233.98 4.44C234.16 4.42 234.26 4.34 234.26 4.19L234.26 3.92L233.09 3.92L232.37 3.92L231.18 3.92L231.18 4.19C231.18 4.34 231.28 4.42 231.46 4.44L231.60 4.44C231.67 4.44 231.77 4.45 231.91 4.45C232.05 4.45 232.20 4.47 232.37 4.47L232.37 13.26C232.20 13.26 232.05 13.27 231.91 13.27C231.77 13.27 231.67 13.29 231.60 13.29L231.46 13.29C231.28 13.30 231.18 13.38 231.18 13.54L231.18 13.82L232.37 13.82L237.65 13.82L237.78 13.82L237.90 13.82L237.90 13.55L237.90 12.99L237.90 11.97L237.62 11.97ZM255.04 8.86C255.04 8.11 254.91 7.41 254.69 6.79C254.46 6.17 254.14 5.64 253.72 5.19C253.30 4.75 252.81 4.40 252.24 4.16C251.66 3.92 251.01 3.79 250.31 3.79C249.61 3.79 248.98 3.92 248.40 4.16C247.83 4.40 247.32 4.75 246.90 5.19C246.48 5.64 246.16 6.17 245.94 6.79C245.71 7.41 245.59 8.11 245.59 8.86C245.59 9.63 245.71 10.33 245.94 10.95C246.16 11.56 246.48 12.10 246.90 12.54C247.32 12.99 247.83 13.33 248.40 13.57C248.98 13.80 249.61 13.93 250.31 13.93C251.01 13.93 251.66 13.80 252.24 13.57C252.81 13.33 253.30 12.99 253.72 12.54C254.14 12.10 254.46 11.56 254.69 10.95C254.91 10.33 255.04 9.63 255.04 8.86ZM254.28 8.86C254.28 9.56 254.20 10.18 254.00 10.72C253.81 11.27 253.54 11.75 253.19 12.12C252.84 12.50 252.42 12.81 251.93 13.01C251.44 13.20 250.91 13.30 250.31 13.30C249.72 13.30 249.19 13.20 248.70 13.01C248.21 12.81 247.79 12.50 247.44 12.12C247.09 11.75 246.81 11.27 246.61 10.72C246.41 10.18 246.33 9.56 246.33 8.86C246.33 8.18 246.41 7.55 246.61 7.00C246.81 6.45 247.09 5.98 247.44 5.60C247.79 5.22 248.21 4.91 248.70 4.72C249.19 4.52 249.72 4.41 250.31 4.41C250.91 4.41 251.44 4.52 251.93 4.72C252.42 4.91 252.84 5.22 253.19 5.60C253.54 5.98 253.81 6.45 254.00 7.00C254.20 7.55 254.28 8.18 254.28 8.86ZM271.87 3.92L271.24 3.92L270.02 3.92L270.02 4.19C270.02 4.34 270.12 4.42 270.30 4.44L270.44 4.44C270.51 4.44 270.62 4.45 270.76 4.45C270.90 4.45 271.07 4.47 271.24 4.47L271.24 12.22C271.24 12.35 271.24 12.49 271.25 12.63L264.84 4.05C264.80 3.99 264.77 3.95 264.73 3.93C264.68 3.92 264.64 3.91 264.57 3.91L264.22 3.91L263.03 3.91L263.03 4.19C263.03 4.34 263.13 4.42 263.31 4.44L263.45 4.44C263.52 4.44 263.62 4.45 263.76 4.45C263.90 4.45 264.05 4.47 264.22 4.47L264.22 13.26C264.05 13.26 263.90 13.27 263.76 13.27C263.62 13.27 263.52 13.29 263.45 13.29L263.31 13.29C263.13 13.30 263.03 13.38 263.03 13.54L263.03 13.82L264.22 13.82L264.84 13.82L266.06 13.82L266.06 13.54C266.06 13.38 265.96 13.30 265.78 13.29L265.64 13.29C265.57 13.29 265.44 13.27 265.30 13.27C265.16 13.27 265.01 13.26 264.84 13.26L264.84 5.49C264.84 5.36 264.84 5.22 264.82 5.08L271.26 13.68C271.33 13.78 271.40 13.82 271.52 13.82L271.87 13.82L271.87 4.47C272.03 4.47 272.17 4.45 272.31 4.45C272.45 4.45 272.57 4.44 272.64 4.44L272.76 4.44C272.94 4.42 273.04 4.34 273.04 4.19L273.04 3.92ZM282.27 3.92L281.08 3.92L281.08 4.19C281.08 4.34 281.18 4.42 281.36 4.44L281.50 4.44C281.57 4.44 281.67 4.45 281.81 4.45C281.95 4.45 282.10 4.47 282.27 4.47L282.27 13.26C282.10 13.26 281.95 13.27 281.81 13.27C281.67 13.27 281.57 13.29 281.50 13.29L281.36 13.29C281.18 13.30 281.09 13.38 281.09 13.54L281.09 13.82L282.27 13.82L288.20 13.82L288.20 13.22L288.20 11.76L287.85 11.76C287.66 11.76 287.57 11.89 287.56 12.11C287.56 12.14 287.55 12.19 287.55 12.29C287.55 12.39 287.55 12.53 287.53 12.74C287.52 12.95 287.50 13.09 287.50 13.22L282.98 13.22L282.98 9.09L286.93 9.09L286.93 8.51L282.98 8.51L282.98 4.51L287.50 4.51C287.53 5.12 287.56 5.50 287.56 5.63C287.57 5.85 287.66 5.96 287.85 5.96L288.20 5.96L288.20 4.51L288.20 3.92ZM314.68 3.92L314.48 3.92L307.19 3.92L306.98 3.92L306.88 3.92L306.88 5.96L307.23 5.96C307.43 5.96 307.51 5.85 307.52 5.63C307.52 5.53 307.55 5.17 307.58 4.52L310.48 4.52L310.48 13.26C310.31 13.26 310.17 13.27 310.03 13.27C309.89 13.27 309.78 13.29 309.71 13.29L309.58 13.29C309.40 13.30 309.30 13.38 309.30 13.54L309.30 13.82L310.48 13.82L311.19 13.82L312.38 13.82L312.38 13.54C312.38 13.38 312.28 13.30 312.10 13.29L311.96 13.29C311.89 13.29 311.79 13.27 311.65 13.27C311.51 13.27 311.36 13.26 311.19 13.26L311.19 4.52L314.08 4.52C314.12 5.24 314.13 5.60 314.13 5.63C314.15 5.85 314.24 5.96 314.44 5.96L314.78 5.96L314.78 3.92ZM332.07 8.86C332.07 8.11 331.94 7.41 331.72 6.79C331.49 6.17 331.17 5.64 330.75 5.19C330.33 4.75 329.84 4.40 329.27 4.16C328.69 3.92 328.03 3.79 327.33 3.79C326.63 3.79 326.00 3.92 325.43 4.16C324.86 4.40 324.35 4.75 323.93 5.19C323.51 5.64 323.19 6.17 322.97 6.79C322.74 7.41 322.62 8.11 322.62 8.86C322.62 9.63 322.74 10.33 322.97 10.95C323.19 11.56 323.51 12.10 323.93 12.54C324.35 12.99 324.86 13.33 325.43 13.57C326.00 13.80 326.63 13.93 327.33 13.93C328.03 13.93 328.69 13.80 329.27 13.57C329.84 13.33 330.33 12.99 330.75 12.54C331.17 12.10 331.49 11.56 331.72 10.95C331.94 10.33 332.07 9.63 332.07 8.86ZM331.31 8.86C331.31 9.56 331.23 10.18 331.03 10.72C330.83 11.27 330.57 11.75 330.22 12.12C329.87 12.50 329.45 12.81 328.96 13.01C328.47 13.20 327.94 13.30 327.33 13.30C326.75 13.30 326.21 13.20 325.72 13.01C325.23 12.81 324.81 12.50 324.46 12.12C324.11 11.75 323.83 11.27 323.64 10.72C323.44 10.18 323.36 9.56 323.36 8.86C323.36 8.18 323.44 7.55 323.64 7.00C323.83 6.45 324.11 5.98 324.46 5.60C324.81 5.22 325.23 4.91 325.72 4.72C326.21 4.52 326.75 4.41 327.33 4.41C327.94 4.41 328.47 4.52 328.96 4.72C329.45 4.91 329.87 5.22 330.22 5.60C330.57 5.98 330.83 6.45 331.03 7.00C331.23 7.55 331.31 8.18 331.31 8.86ZM358.44 12.21C358.41 12.18 358.37 12.15 358.33 12.15C358.30 12.15 358.29 12.15 358.26 12.17C358.25 12.18 358.22 12.21 358.19 12.22C357.99 12.40 357.78 12.56 357.59 12.70C357.39 12.84 357.18 12.94 356.94 13.03C356.71 13.13 356.45 13.20 356.17 13.24C355.89 13.29 355.59 13.31 355.24 13.31C354.68 13.31 354.13 13.22 353.65 13.01C353.16 12.81 352.76 12.52 352.41 12.14C352.06 11.76 351.76 11.28 351.57 10.74C351.37 10.19 351.27 9.56 351.27 8.86C351.27 8.18 351.37 7.56 351.57 7.01C351.78 6.47 352.06 6.01 352.42 5.61C352.79 5.24 353.22 4.94 353.72 4.73C354.23 4.52 354.77 4.42 355.38 4.42C356.27 4.42 357.10 4.56 357.83 4.89C357.87 5.78 357.91 6.30 357.91 6.41C357.92 6.64 358.01 6.75 358.20 6.75L358.54 6.75L358.54 4.51C357.36 4.03 356.30 3.81 355.38 3.81C354.66 3.81 354.02 3.92 353.42 4.17C352.83 4.42 352.30 4.76 351.88 5.21C351.44 5.66 351.12 6.19 350.88 6.80C350.64 7.42 350.53 8.11 350.53 8.86C350.53 9.63 350.66 10.32 350.88 10.95C351.11 11.58 351.43 12.10 351.83 12.54C352.24 12.99 352.73 13.33 353.30 13.57C353.88 13.80 354.49 13.93 355.18 13.93C355.59 13.93 355.96 13.90 356.31 13.83C356.65 13.76 356.97 13.66 357.27 13.54C357.55 13.41 357.81 13.26 358.05 13.09C358.29 12.91 358.51 12.73 358.72 12.50ZM376.00 8.86C376.00 8.11 375.87 7.41 375.65 6.79C375.42 6.17 375.10 5.64 374.68 5.19C374.26 4.75 373.77 4.40 373.20 4.16C372.62 3.92 371.97 3.79 371.27 3.79C370.57 3.79 369.94 3.92 369.36 4.16C368.79 4.40 368.28 4.75 367.86 5.19C367.44 5.64 367.12 6.17 366.90 6.79C366.67 7.41 366.55 8.11 366.55 8.86C366.55 9.63 366.67 10.33 366.90 10.95C367.12 11.56 367.44 12.10 367.86 12.54C368.28 12.99 368.79 13.33 369.36 13.57C369.94 13.80 370.57 13.93 371.27 13.93C371.97 13.93 372.62 13.80 373.20 13.57C373.77 13.33 374.26 12.99 374.68 12.54C375.10 12.10 375.42 11.56 375.65 10.95C375.87 10.33 376.00 9.63 376.00 8.86ZM375.24 8.86C375.24 9.56 375.16 10.18 374.96 10.72C374.77 11.27 374.50 11.75 374.15 12.12C373.80 12.50 373.38 12.81 372.89 13.01C372.40 13.20 371.87 13.30 371.27 13.30C370.68 13.30 370.15 13.20 369.66 13.01C369.17 12.81 368.75 12.50 368.40 12.12C368.05 11.75 367.77 11.27 367.57 10.72C367.37 10.18 367.29 9.56 367.29 8.86C367.29 8.18 367.37 7.55 367.57 7.00C367.77 6.45 368.05 5.98 368.40 5.60C368.75 5.22 369.17 4.91 369.66 4.72C370.15 4.52 370.68 4.41 371.27 4.41C371.87 4.41 372.40 4.52 372.89 4.72C373.38 4.91 373.80 5.22 374.15 5.60C374.50 5.98 374.77 6.45 374.96 7.00C375.16 7.55 375.24 8.18 375.24 8.86ZM392.83 3.92L392.20 3.92L390.98 3.92L390.98 4.19C390.98 4.34 391.08 4.42 391.26 4.44L391.40 4.44C391.47 4.44 391.58 4.45 391.72 4.45C391.86 4.45 392.03 4.47 392.20 4.47L392.20 12.22C392.20 12.35 392.20 12.49 392.21 12.63L385.80 4.05C385.76 3.99 385.73 3.95 385.69 3.93C385.64 3.92 385.60 3.91 385.53 3.91L385.18 3.91L383.99 3.91L383.99 4.19C383.99 4.34 384.09 4.42 384.27 4.44L384.41 4.44C384.48 4.44 384.58 4.45 384.72 4.45C384.86 4.45 385.01 4.47 385.18 4.47L385.18 13.26C385.01 13.26 384.86 13.27 384.72 13.27C384.58 13.27 384.48 13.29 384.41 13.29L384.27 13.29C384.09 13.30 383.99 13.38 383.99 13.54L383.99 13.82L385.18 13.82L385.80 13.82L387.02 13.82L387.02 13.54C387.02 13.38 386.92 13.30 386.74 13.29L386.60 13.29C386.53 13.29 386.40 13.27 386.26 13.27C386.12 13.27 385.97 13.26 385.80 13.26L385.80 5.49C385.80 5.36 385.80 5.22 385.78 5.08L392.22 13.68C392.29 13.78 392.36 13.82 392.48 13.82L392.83 13.82L392.83 4.47C392.99 4.47 393.13 4.45 393.27 4.45C393.41 4.45 393.53 4.44 393.60 4.44L393.72 4.44C393.90 4.42 394.00 4.34 394.00 4.19L394.00 3.92ZM409.16 3.92L408.81 3.92L403.23 3.92L402.04 3.92L402.04 4.19C402.04 4.34 402.14 4.42 402.32 4.44L402.46 4.44C402.53 4.44 402.63 4.45 402.77 4.45C402.91 4.45 403.06 4.47 403.23 4.47L403.23 13.26C403.06 13.26 402.91 13.27 402.77 13.27C402.63 13.27 402.53 13.29 402.46 13.29L402.32 13.29C402.14 13.30 402.04 13.38 402.04 13.54L402.04 13.82L403.23 13.82L403.94 13.82L405.12 13.82L405.12 13.54C405.12 13.38 405.03 13.30 404.85 13.29L404.71 13.29C404.64 13.29 404.54 13.27 404.40 13.27C404.26 13.27 404.11 13.26 403.94 13.26L403.94 9.27L407.64 9.27L407.64 8.67L403.94 8.67L403.94 4.51L408.55 4.51C408.58 5.18 408.60 5.56 408.60 5.63C408.62 5.85 408.72 5.96 408.91 5.96L409.25 5.96L409.25 3.92ZM425.36 13.29L425.26 13.29L425.08 13.29C425.00 13.29 424.91 13.27 424.83 13.27L421.86 9.53C421.78 9.42 421.67 9.32 421.55 9.25C421.99 9.21 422.38 9.11 422.73 8.96C423.08 8.81 423.36 8.61 423.61 8.37C423.85 8.13 424.05 7.85 424.17 7.55C424.30 7.24 424.37 6.89 424.37 6.51C424.37 5.66 424.09 5.03 423.53 4.58C422.97 4.14 422.11 3.92 420.97 3.92L418.56 3.92L417.38 3.92L417.38 4.19C417.38 4.34 417.47 4.42 417.65 4.44L417.79 4.44C417.86 4.44 417.96 4.45 418.10 4.45C418.24 4.45 418.39 4.47 418.56 4.47L418.56 13.26C418.39 13.26 418.24 13.27 418.10 13.27C417.96 13.27 417.86 13.29 417.79 13.29L417.65 13.29C417.47 13.30 417.37 13.38 417.37 13.54L417.37 13.82L418.56 13.82L419.27 13.82L420.45 13.82L420.45 13.54C420.45 13.38 420.35 13.30 420.17 13.29L420.03 13.29C419.96 13.29 419.86 13.27 419.72 13.27C419.58 13.27 419.44 13.26 419.27 13.26L419.27 9.34L420.45 9.34C420.64 9.34 420.78 9.35 420.87 9.39C420.95 9.44 421.04 9.52 421.12 9.62L424.30 13.64C424.35 13.71 424.40 13.75 424.45 13.78C424.51 13.80 424.58 13.82 424.65 13.82L424.72 13.82L425.26 13.82L425.63 13.82L425.63 13.54C425.63 13.38 425.54 13.30 425.36 13.29ZM420.87 8.81L419.27 8.81L419.27 4.48L420.97 4.48C421.85 4.48 422.52 4.66 422.98 5.00C423.44 5.33 423.67 5.87 423.67 6.57C423.67 6.92 423.61 7.21 423.49 7.49C423.36 7.77 423.16 7.99 422.93 8.19C422.69 8.39 422.39 8.55 422.04 8.65C421.69 8.75 421.30 8.81 420.87 8.81ZM442.79 8.86C442.79 8.11 442.67 7.41 442.44 6.79C442.22 6.17 441.90 5.64 441.48 5.19C441.06 4.75 440.57 4.40 439.99 4.16C439.42 3.92 438.76 3.79 438.06 3.79C437.36 3.79 436.73 3.92 436.16 4.16C435.58 4.40 435.08 4.75 434.66 5.19C434.24 5.64 433.92 6.17 433.69 6.79C433.47 7.41 433.34 8.11 433.34 8.86C433.34 9.63 433.47 10.33 433.69 10.95C433.92 11.56 434.24 12.10 434.66 12.54C435.08 12.99 435.58 13.33 436.16 13.57C436.73 13.80 437.36 13.93 438.06 13.93C438.76 13.93 439.42 13.80 439.99 13.57C440.57 13.33 441.06 12.99 441.48 12.54C441.90 12.10 442.22 11.56 442.44 10.95C442.67 10.33 442.79 9.63 442.79 8.86ZM442.04 8.86C442.04 9.56 441.95 10.18 441.76 10.72C441.56 11.27 441.29 11.75 440.94 12.12C440.59 12.50 440.17 12.81 439.68 13.01C439.19 13.20 438.66 13.30 438.06 13.30C437.47 13.30 436.94 13.20 436.45 13.01C435.96 12.81 435.54 12.50 435.19 12.12C434.84 11.75 434.56 11.27 434.36 10.72C434.17 10.18 434.08 9.56 434.08 8.86C434.08 8.18 434.17 7.55 434.36 7.00C434.56 6.45 434.84 5.98 435.19 5.60C435.54 5.22 435.96 4.91 436.45 4.72C436.94 4.52 437.47 4.41 438.06 4.41C438.66 4.41 439.19 4.52 439.68 4.72C440.17 4.91 440.59 5.22 440.94 5.60C441.29 5.98 441.56 6.45 441.76 7.00C441.95 7.55 442.04 8.18 442.04 8.86ZM459.62 3.92L458.99 3.92L457.77 3.92L457.77 4.19C457.77 4.34 457.87 4.42 458.05 4.44L458.19 4.44C458.26 4.44 458.37 4.45 458.51 4.45C458.65 4.45 458.82 4.47 458.99 4.47L458.99 12.22C458.99 12.35 458.99 12.49 459.00 12.63L452.59 4.05C452.55 3.99 452.52 3.95 452.48 3.93C452.44 3.92 452.40 3.91 452.33 3.91L451.98 3.91L450.79 3.91L450.79 4.19C450.79 4.34 450.88 4.42 451.07 4.44L451.21 4.44C451.28 4.44 451.37 4.45 451.51 4.45C451.65 4.45 451.81 4.47 451.98 4.47L451.98 13.26C451.81 13.26 451.65 13.27 451.51 13.27C451.37 13.27 451.28 13.29 451.21 13.29L451.07 13.29C450.88 13.30 450.79 13.38 450.79 13.54L450.79 13.82L451.98 13.82L452.59 13.82L453.81 13.82L453.81 13.54C453.81 13.38 453.71 13.30 453.53 13.29L453.39 13.29C453.32 13.29 453.19 13.27 453.05 13.27C452.91 13.27 452.76 13.26 452.59 13.26L452.59 5.49C452.59 5.36 452.59 5.22 452.58 5.08L459.02 13.68C459.09 13.78 459.16 13.82 459.27 13.82L459.62 13.82L459.62 4.47C459.79 4.47 459.93 4.45 460.07 4.45C460.21 4.45 460.32 4.44 460.39 4.44L460.52 4.44C460.70 4.42 460.80 4.34 460.80 4.19L460.80 3.92ZM476.35 3.92L476.15 3.92L468.86 3.92L468.65 3.92L468.55 3.92L468.55 5.96L468.90 5.96C469.10 5.96 469.18 5.85 469.20 5.63C469.20 5.53 469.22 5.17 469.25 4.52L472.15 4.52L472.15 13.26C471.98 13.26 471.84 13.27 471.70 13.27C471.56 13.27 471.45 13.29 471.38 13.29L471.25 13.29C471.07 13.30 470.97 13.38 470.97 13.54L470.97 13.82L472.15 13.82L472.86 13.82L474.05 13.82L474.05 13.54C474.05 13.38 473.96 13.30 473.77 13.29L473.63 13.29C473.56 13.29 473.47 13.27 473.33 13.27C473.19 13.27 473.03 13.26 472.86 13.26L472.86 4.52L475.75 4.52C475.79 5.24 475.80 5.60 475.80 5.63C475.82 5.85 475.92 5.96 476.11 5.96L476.45 5.96L476.45 3.92ZM502.45 3.92L502.25 3.92L494.96 3.92L494.75 3.92L494.65 3.92L494.65 5.96L495.00 5.96C495.19 5.96 495.28 5.85 495.29 5.63C495.29 5.53 495.32 5.17 495.35 4.52L498.25 4.52L498.25 13.26C498.08 13.26 497.94 13.27 497.80 13.27C497.66 13.27 497.55 13.29 497.48 13.29L497.35 13.29C497.17 13.30 497.07 13.38 497.07 13.54L497.07 13.82L498.25 13.82L498.96 13.82L500.15 13.82L500.15 13.54C500.15 13.38 500.05 13.30 499.87 13.29L499.73 13.29C499.66 13.29 499.56 13.27 499.42 13.27C499.28 13.27 499.13 13.26 498.96 13.26L498.96 4.52L501.84 4.52C501.89 5.24 501.90 5.60 501.90 5.63C501.91 5.85 502.01 5.96 502.21 5.96L502.54 5.96L502.54 3.92ZM520.38 4.44C520.56 4.42 520.66 4.34 520.66 4.19L520.66 3.92L519.48 3.92L518.76 3.92L517.58 3.92L517.58 4.19C517.58 4.34 517.68 4.42 517.86 4.44L517.99 4.44C518.06 4.44 518.17 4.45 518.31 4.45C518.45 4.45 518.59 4.47 518.76 4.47L518.76 8.53L512.55 8.53L512.55 4.47C512.72 4.47 512.88 4.45 513.02 4.45C513.16 4.45 513.25 4.44 513.32 4.44L513.46 4.44C513.65 4.42 513.73 4.34 513.73 4.19L513.73 3.92L512.55 3.92L511.84 3.92L510.65 3.92L510.65 4.19C510.65 4.34 510.75 4.42 510.93 4.44L511.07 4.44C511.14 4.44 511.24 4.45 511.38 4.45C511.52 4.45 511.67 4.47 511.84 4.47L511.84 13.26C511.67 13.26 511.52 13.27 511.38 13.27C511.24 13.27 511.14 13.29 511.07 13.29L510.93 13.29C510.75 13.30 510.65 13.38 510.65 13.54L510.65 13.82L511.84 13.82L512.55 13.82L513.73 13.82L513.73 13.54C513.73 13.38 513.65 13.30 513.46 13.29L513.32 13.29C513.25 13.29 513.16 13.27 513.02 13.27C512.88 13.27 512.72 13.26 512.55 13.26L512.55 9.07L518.76 9.07L518.76 13.26C518.59 13.26 518.45 13.27 518.31 13.27C518.17 13.27 518.06 13.29 517.99 13.29L517.86 13.29C517.68 13.30 517.58 13.38 517.58 13.54L517.58 13.82L518.76 13.82L519.48 13.82L520.66 13.82L520.66 13.54C520.66 13.38 520.56 13.30 520.38 13.29L520.25 13.29C520.18 13.29 520.07 13.27 519.93 13.27C519.79 13.27 519.65 13.26 519.48 13.26L519.48 4.47C519.65 4.47 519.79 4.45 519.93 4.45C520.07 4.45 520.18 4.44 520.25 4.44ZM530.19 3.92L529.00 3.92L529.00 4.19C529.00 4.34 529.10 4.42 529.28 4.44L529.42 4.44C529.49 4.44 529.59 4.45 529.73 4.45C529.87 4.45 530.03 4.47 530.19 4.47L530.19 13.26C530.03 13.26 529.87 13.27 529.73 13.27C529.59 13.27 529.49 13.29 529.42 13.29L529.28 13.29C529.10 13.30 529.02 13.38 529.02 13.54L529.02 13.82L530.19 13.82L536.13 13.82L536.13 13.22L536.13 11.76L535.78 11.76C535.58 11.76 535.50 11.89 535.49 12.11C535.49 12.14 535.47 12.19 535.47 12.29C535.47 12.39 535.47 12.53 535.46 12.74C535.44 12.95 535.43 13.09 535.43 13.22L530.91 13.22L530.91 9.09L534.86 9.09L534.86 8.51L530.91 8.51L530.91 4.51L535.43 4.51C535.46 5.12 535.49 5.50 535.49 5.63C535.50 5.85 535.58 5.96 535.78 5.96L536.13 5.96L536.13 4.51L536.13 3.92ZM563.40 3.92L562.69 3.92L561.33 3.92L561.33 4.19C561.33 4.34 561.43 4.42 561.61 4.44L561.78 4.44C561.88 4.44 562.02 4.45 562.18 4.45C562.35 4.45 562.52 4.47 562.69 4.47L562.69 10.04C562.69 10.50 562.62 10.92 562.48 11.33C562.34 11.73 562.14 12.08 561.88 12.38C561.61 12.67 561.30 12.89 560.92 13.06C560.55 13.23 560.13 13.31 559.65 13.31C559.17 13.31 558.74 13.23 558.36 13.06C557.98 12.89 557.66 12.66 557.41 12.36C557.14 12.07 556.96 11.72 556.82 11.33C556.68 10.93 556.61 10.50 556.61 10.04L556.61 4.47C556.78 4.47 556.95 4.45 557.12 4.45C557.28 4.45 557.42 4.44 557.52 4.44L557.69 4.44C557.87 4.42 557.97 4.34 557.97 4.19L557.97 3.92L556.61 3.92L555.90 3.92L554.72 3.92L554.72 4.19C554.72 4.34 554.81 4.42 554.99 4.44L555.13 4.44C555.20 4.44 555.30 4.45 555.44 4.45C555.58 4.45 555.73 4.47 555.90 4.47L555.90 10.04C555.90 10.58 555.98 11.09 556.15 11.56C556.32 12.04 556.57 12.46 556.89 12.81C557.21 13.16 557.62 13.44 558.08 13.64C558.54 13.83 559.08 13.93 559.65 13.93C560.22 13.93 560.74 13.83 561.20 13.64C561.67 13.44 562.07 13.16 562.39 12.81C562.72 12.46 562.97 12.04 563.14 11.56C563.30 11.09 563.40 10.58 563.40 10.04L563.40 4.47C563.57 4.47 563.71 4.45 563.85 4.45C563.99 4.45 564.10 4.44 564.17 4.44L564.30 4.44C564.48 4.42 564.58 4.34 564.58 4.19L564.58 3.92ZM581.43 3.92L580.80 3.92L579.59 3.92L579.59 4.19C579.59 4.34 579.68 4.42 579.87 4.44L580.01 4.44C580.08 4.44 580.19 4.45 580.33 4.45C580.47 4.45 580.64 4.47 580.80 4.47L580.80 12.22C580.80 12.35 580.80 12.49 580.82 12.63L574.41 4.05C574.36 3.99 574.34 3.95 574.29 3.93C574.25 3.92 574.21 3.91 574.14 3.91L573.79 3.91L572.60 3.91L572.60 4.19C572.60 4.34 572.70 4.42 572.88 4.44L573.02 4.44C573.09 4.44 573.19 4.45 573.33 4.45C573.47 4.45 573.62 4.47 573.79 4.47L573.79 13.26C573.62 13.26 573.47 13.27 573.33 13.27C573.19 13.27 573.09 13.29 573.02 13.29L572.88 13.29C572.70 13.30 572.60 13.38 572.60 13.54L572.60 13.82L573.79 13.82L574.41 13.82L575.62 13.82L575.62 13.54C575.62 13.38 575.53 13.30 575.34 13.29L575.20 13.29C575.13 13.29 575.01 13.27 574.87 13.27C574.73 13.27 574.57 13.26 574.41 13.26L574.41 5.49C574.41 5.36 574.41 5.22 574.39 5.08L580.83 13.68C580.90 13.78 580.97 13.82 581.08 13.82L581.43 13.82L581.43 4.47C581.60 4.47 581.74 4.45 581.88 4.45C582.02 4.45 582.13 4.44 582.20 4.44L582.33 4.44C582.51 4.42 582.61 4.34 582.61 4.19L582.61 3.92ZM596.88 4.68C596.29 4.17 595.41 3.92 594.24 3.92L591.84 3.92L590.65 3.92L590.65 4.19C590.65 4.34 590.74 4.42 590.93 4.44L591.07 4.44C591.14 4.44 591.23 4.45 591.37 4.45C591.51 4.45 591.67 4.47 591.84 4.47L591.84 13.26C591.67 13.26 591.51 13.27 591.37 13.27C591.23 13.27 591.14 13.29 591.07 13.29L590.93 13.29C590.74 13.30 590.65 13.38 590.65 13.54L590.65 13.82L591.84 13.82L592.55 13.82L593.73 13.82L593.73 13.54C593.73 13.38 593.63 13.30 593.45 13.29L593.32 13.29C593.25 13.29 593.14 13.27 593.00 13.27C592.86 13.27 592.72 13.26 592.55 13.26L592.55 9.83L594.24 9.83C594.79 9.83 595.28 9.74 595.71 9.60C596.15 9.45 596.51 9.25 596.82 8.99C597.13 8.72 597.37 8.41 597.52 8.05C597.69 7.69 597.76 7.29 597.76 6.86C597.76 5.92 597.46 5.18 596.88 4.68ZM596.85 7.81C596.72 8.11 596.54 8.36 596.30 8.57C596.06 8.78 595.77 8.95 595.42 9.07C595.07 9.20 594.68 9.25 594.24 9.25L592.55 9.25L592.55 4.48L594.24 4.48C595.17 4.48 595.87 4.69 596.34 5.10C596.81 5.50 597.04 6.09 597.04 6.85C597.04 7.20 596.97 7.52 596.85 7.81ZM613.94 13.29L613.84 13.29L613.66 13.29C613.58 13.29 613.49 13.27 613.41 13.27L610.44 9.53C610.36 9.42 610.25 9.32 610.13 9.25C610.57 9.21 610.96 9.11 611.31 8.96C611.66 8.81 611.94 8.61 612.19 8.37C612.43 8.13 612.63 7.85 612.75 7.55C612.88 7.24 612.95 6.89 612.95 6.51C612.95 5.66 612.67 5.03 612.11 4.58C611.55 4.14 610.69 3.92 609.55 3.92L607.14 3.92L605.96 3.92L605.96 4.19C605.96 4.34 606.05 4.42 606.23 4.44L606.37 4.44C606.44 4.44 606.54 4.45 606.68 4.45C606.82 4.45 606.97 4.47 607.14 4.47L607.14 13.26C606.97 13.26 606.82 13.27 606.68 13.27C606.54 13.27 606.44 13.29 606.37 13.29L606.23 13.29C606.05 13.30 605.95 13.38 605.95 13.54L605.95 13.82L607.14 13.82L607.85 13.82L609.03 13.82L609.03 13.54C609.03 13.38 608.93 13.30 608.75 13.29L608.61 13.29C608.54 13.29 608.44 13.27 608.30 13.27C608.16 13.27 608.02 13.26 607.85 13.26L607.85 9.34L609.03 9.34C609.22 9.34 609.36 9.35 609.45 9.39C609.53 9.44 609.62 9.52 609.70 9.62L612.88 13.64C612.93 13.71 612.98 13.75 613.03 13.78C613.09 13.80 613.16 13.82 613.23 13.82L613.30 13.82L613.84 13.82L614.21 13.82L614.21 13.54C614.21 13.38 614.12 13.30 613.94 13.29ZM609.45 8.81L607.85 8.81L607.85 4.48L609.55 4.48C610.43 4.48 611.10 4.66 611.56 5.00C612.02 5.33 612.25 5.87 612.25 6.57C612.25 6.92 612.19 7.21 612.07 7.49C611.94 7.77 611.74 7.99 611.51 8.19C611.27 8.39 610.97 8.55 610.62 8.65C610.27 8.75 609.88 8.81 609.45 8.81ZM623.60 3.92L622.41 3.92L622.41 4.19C622.41 4.34 622.51 4.42 622.69 4.44L622.83 4.44C622.90 4.44 623.00 4.45 623.14 4.45C623.28 4.45 623.43 4.47 623.60 4.47L623.60 13.26C623.43 13.26 623.28 13.27 623.14 13.27C623.00 13.27 622.90 13.29 622.83 13.29L622.69 13.29C622.51 13.30 622.43 13.38 622.43 13.54L622.43 13.82L623.60 13.82L629.54 13.82L629.54 13.22L629.54 11.76L629.19 11.76C628.99 11.76 628.91 11.89 628.89 12.11C628.89 12.14 628.88 12.19 628.88 12.29C628.88 12.39 628.88 12.53 628.87 12.74C628.85 12.95 628.84 13.09 628.84 13.22L624.32 13.22L624.32 9.09L628.26 9.09L628.26 8.51L624.32 8.51L624.32 4.51L628.84 4.51C628.87 5.12 628.89 5.50 628.89 5.63C628.91 5.85 628.99 5.96 629.19 5.96L629.54 5.96L629.54 4.51L629.54 3.92ZM645.74 12.21C645.71 12.18 645.67 12.15 645.62 12.15C645.60 12.15 645.58 12.15 645.55 12.17C645.54 12.18 645.51 12.21 645.48 12.22C645.29 12.40 645.08 12.56 644.88 12.70C644.69 12.84 644.48 12.94 644.24 13.03C644.00 13.13 643.75 13.20 643.47 13.24C643.19 13.29 642.88 13.31 642.53 13.31C641.97 13.31 641.42 13.22 640.95 13.01C640.46 12.81 640.05 12.52 639.70 12.14C639.35 11.76 639.06 11.28 638.86 10.74C638.67 10.19 638.57 9.56 638.57 8.86C638.57 8.18 638.67 7.56 638.86 7.01C639.07 6.47 639.35 6.01 639.72 5.61C640.08 5.24 640.51 4.94 641.02 4.73C641.52 4.52 642.07 4.42 642.67 4.42C643.57 4.42 644.39 4.56 645.12 4.89C645.16 5.78 645.20 6.30 645.20 6.41C645.22 6.64 645.30 6.75 645.50 6.75L645.83 6.75L645.83 4.51C644.66 4.03 643.59 3.81 642.67 3.81C641.96 3.81 641.31 3.92 640.71 4.17C640.12 4.42 639.59 4.76 639.17 5.21C638.74 5.66 638.41 6.19 638.18 6.80C637.94 7.42 637.83 8.11 637.83 8.86C637.83 9.63 637.95 10.32 638.18 10.95C638.40 11.58 638.72 12.10 639.13 12.54C639.53 12.99 640.02 13.33 640.60 13.57C641.17 13.80 641.79 13.93 642.47 13.93C642.88 13.93 643.26 13.90 643.61 13.83C643.94 13.76 644.27 13.66 644.56 13.54C644.84 13.41 645.11 13.26 645.34 13.09C645.58 12.91 645.81 12.73 646.02 12.50ZM655.21 3.92L654.02 3.92L654.02 4.19C654.02 4.34 654.12 4.42 654.30 4.44L654.44 4.44C654.51 4.44 654.61 4.45 654.75 4.45C654.89 4.45 655.05 4.47 655.21 4.47L655.21 13.26C655.05 13.26 654.89 13.27 654.75 13.27C654.61 13.27 654.51 13.29 654.44 13.29L654.30 13.29C654.12 13.30 654.04 13.38 654.04 13.54L654.04 13.82L655.21 13.82L661.15 13.82L661.15 13.22L661.15 11.76L660.80 11.76C660.60 11.76 660.52 11.89 660.51 12.11C660.51 12.14 660.49 12.19 660.49 12.29C660.49 12.39 660.49 12.53 660.48 12.74C660.46 12.95 660.45 13.09 660.45 13.22L655.93 13.22L655.93 9.09L659.88 9.09L659.88 8.51L655.93 8.51L655.93 4.51L660.45 4.51C660.48 5.12 660.51 5.50 660.51 5.63C660.52 5.85 660.60 5.96 660.80 5.96L661.15 5.96L661.15 4.51L661.15 3.92ZM678.73 6.80C678.51 6.19 678.19 5.68 677.77 5.25C677.35 4.82 676.86 4.48 676.28 4.26C675.71 4.03 675.05 3.92 674.35 3.92L670.92 3.92L669.73 3.92L669.73 4.19C669.73 4.34 669.83 4.42 670.01 4.44L670.15 4.44C670.22 4.44 670.32 4.45 670.46 4.45C670.60 4.45 670.75 4.47 670.92 4.47L670.92 13.26C670.75 13.26 670.60 13.27 670.46 13.27C670.32 13.27 670.22 13.29 670.15 13.29L670.01 13.29C669.83 13.30 669.73 13.38 669.73 13.54L669.73 13.82L670.92 13.82L674.35 13.82C675.05 13.82 675.71 13.71 676.28 13.48C676.86 13.26 677.35 12.92 677.77 12.49C678.19 12.05 678.51 11.54 678.73 10.92C678.96 10.30 679.08 9.63 679.08 8.86C679.08 8.11 678.96 7.42 678.73 6.80ZM678.05 10.72C677.85 11.27 677.60 11.72 677.25 12.10C676.90 12.47 676.48 12.75 675.99 12.95C675.50 13.15 674.95 13.24 674.35 13.24L671.64 13.24L671.64 4.49L674.35 4.49C674.95 4.49 675.50 4.59 675.99 4.79C676.48 4.98 676.90 5.26 677.25 5.64C677.60 6.02 677.85 6.47 678.05 7.01C678.24 7.56 678.34 8.18 678.34 8.86C678.34 9.56 678.24 10.18 678.05 10.72ZM688.56 3.92L687.37 3.92L687.37 4.19C687.37 4.34 687.47 4.42 687.65 4.44L687.79 4.44C687.86 4.44 687.96 4.45 688.10 4.45C688.24 4.45 688.39 4.47 688.56 4.47L688.56 13.26C688.39 13.26 688.24 13.27 688.10 13.27C687.96 13.27 687.86 13.29 687.79 13.29L687.65 13.29C687.47 13.30 687.39 13.38 687.39 13.54L687.39 13.82L688.56 13.82L694.50 13.82L694.50 13.22L694.50 11.76L694.15 11.76C693.95 11.76 693.87 11.89 693.85 12.11C693.85 12.14 693.84 12.19 693.84 12.29C693.84 12.39 693.84 12.53 693.83 12.74C693.81 12.95 693.80 13.09 693.80 13.22L689.28 13.22L689.28 9.09L693.22 9.09L693.22 8.51L689.28 8.51L689.28 4.51L693.80 4.51C693.83 5.12 693.85 5.50 693.85 5.63C693.87 5.85 693.95 5.96 694.15 5.96L694.50 5.96L694.50 4.51L694.50 3.92ZM711.91 3.92L711.28 3.92L710.07 3.92L710.07 4.19C710.07 4.34 710.16 4.42 710.35 4.44L710.49 4.44C710.56 4.44 710.67 4.45 710.81 4.45C710.95 4.45 711.12 4.47 711.28 4.47L711.28 12.22C711.28 12.35 711.28 12.49 711.30 12.63L704.89 4.05C704.84 3.99 704.82 3.95 704.77 3.93C704.73 3.92 704.69 3.91 704.62 3.91L704.27 3.91L703.08 3.91L703.08 4.19C703.08 4.34 703.18 4.42 703.36 4.44L703.50 4.44C703.57 4.44 703.67 4.45 703.81 4.45C703.95 4.45 704.10 4.47 704.27 4.47L704.27 13.26C704.10 13.26 703.95 13.27 703.81 13.27C703.67 13.27 703.57 13.29 703.50 13.29L703.36 13.29C703.18 13.30 703.08 13.38 703.08 13.54L703.08 13.82L704.27 13.82L704.89 13.82L706.10 13.82L706.10 13.54C706.10 13.38 706.01 13.30 705.82 13.29L705.68 13.29C705.61 13.29 705.49 13.27 705.35 13.27C705.21 13.27 705.05 13.26 704.89 13.26L704.89 5.49C704.89 5.36 704.89 5.22 704.87 5.08L711.31 13.68C711.38 13.78 711.45 13.82 711.56 13.82L711.91 13.82L711.91 4.47C712.08 4.47 712.22 4.45 712.36 4.45C712.50 4.45 712.61 4.44 712.68 4.44L712.81 4.44C712.99 4.42 713.09 4.34 713.09 4.19L713.09 3.92ZM728.64 3.92L728.45 3.92L721.15 3.92L720.94 3.92L720.85 3.92L720.85 5.96L721.20 5.96C721.39 5.96 721.48 5.85 721.49 5.63C721.49 5.53 721.52 5.17 721.55 4.52L724.44 4.52L724.44 13.26C724.28 13.26 724.14 13.27 724.00 13.27C723.86 13.27 723.74 13.29 723.67 13.29L723.55 13.29C723.37 13.30 723.27 13.38 723.27 13.54L723.27 13.82L724.44 13.82L725.16 13.82L726.35 13.82L726.35 13.54C726.35 13.38 726.25 13.30 726.07 13.29L725.93 13.29C725.86 13.29 725.76 13.27 725.62 13.27C725.48 13.27 725.33 13.26 725.16 13.26L725.16 4.52L728.04 4.52C728.08 5.24 728.10 5.60 728.10 5.63C728.11 5.85 728.21 5.96 728.41 5.96L728.74 5.96L728.74 3.92ZM738.04 3.92L736.85 3.92L736.85 4.19C736.85 4.34 736.95 4.42 737.13 4.44L737.27 4.44C737.34 4.44 737.44 4.45 737.58 4.45C737.72 4.45 737.87 4.47 738.04 4.47L738.04 13.26C737.87 13.26 737.72 13.27 737.58 13.27C737.44 13.27 737.34 13.29 737.27 13.29L737.13 13.29C736.95 13.30 736.86 13.38 736.86 13.54L736.86 13.82L738.04 13.82L743.97 13.82L743.97 13.22L743.97 11.76L743.62 11.76C743.43 11.76 743.34 11.89 743.33 12.11C743.33 12.14 743.32 12.19 743.32 12.29C743.32 12.39 743.32 12.53 743.30 12.74C743.29 12.95 743.27 13.09 743.27 13.22L738.75 13.22L738.75 9.09L742.70 9.09L742.70 8.51L738.75 8.51L738.75 4.51L743.27 4.51C743.30 5.12 743.33 5.50 743.33 5.63C743.34 5.85 743.43 5.96 743.62 5.96L743.97 5.96L743.97 4.51L743.97 3.92ZM761.56 6.80C761.33 6.19 761.01 5.68 760.59 5.25C760.17 4.82 759.68 4.48 759.11 4.26C758.53 4.03 757.88 3.92 757.18 3.92L753.75 3.92L752.56 3.92L752.56 4.19C752.56 4.34 752.65 4.42 752.84 4.44L752.98 4.44C753.05 4.44 753.14 4.45 753.28 4.45C753.42 4.45 753.58 4.47 753.75 4.47L753.75 13.26C753.58 13.26 753.42 13.27 753.28 13.27C753.14 13.27 753.05 13.29 752.98 13.29L752.84 13.29C752.65 13.30 752.56 13.38 752.56 13.54L752.56 13.82L753.75 13.82L757.18 13.82C757.88 13.82 758.53 13.71 759.11 13.48C759.68 13.26 760.17 12.92 760.59 12.49C761.01 12.05 761.33 11.54 761.56 10.92C761.78 10.30 761.91 9.63 761.91 8.86C761.91 8.11 761.78 7.42 761.56 6.80ZM760.87 10.72C760.68 11.27 760.42 11.72 760.07 12.10C759.72 12.47 759.30 12.75 758.81 12.95C758.32 13.15 757.78 13.24 757.18 13.24L754.46 13.24L754.46 4.49L757.18 4.49C757.78 4.49 758.32 4.59 758.81 4.79C759.30 4.98 759.72 5.26 760.07 5.64C760.42 6.02 760.68 6.47 760.87 7.01C761.07 7.56 761.17 8.18 761.17 8.86C761.17 9.56 761.07 10.18 760.87 10.72Z"></path></g></svg>